<svg width="365" height="285" viewBox="0 0 365 285" fill="none" xmlns="http://www.w3.org/2000/svg">
<rect x="0.21167" y="20.0229" width="303.564" height="247.293" rx="60" transform="rotate(-3.60583 0.21167 20.0229)" fill="url(#paint0_linear_428_2170)"/>
<path d="M11.3531 82.0325C26.2283 81.0951 41.566 82.7213 56.5362 82.5053C81.1978 82.1494 105.888 83.3185 130.542 81.9918C161.726 80.3137 192.569 78.3157 223.8 78.7711C246.285 79.0989 269.274 76.2374 291.779 74.8193" stroke="#FFE3C7" stroke-width="8" stroke-linecap="round"/>
<path d="M68.1958 106.837C70.5077 143.524 74.3209 180.327 76.6235 216.865" stroke="#FFE3C7" stroke-width="8" stroke-linecap="round"/>
<path d="M127.627 101.598C129.973 138.825 135.216 174.599 144.064 210.955C148.542 229.356 156.52 246.898 160.359 265.374" stroke="#FFE3C7" stroke-width="8" stroke-linecap="round"/>
<path d="M207.342 110.021C211.584 112.803 211.104 130.003 211.52 134.16C214.019 159.167 214.559 184.331 216.922 209.352C218.89 230.183 221.607 250.799 229.375 269.989" stroke="#FFE3C7" stroke-width="8" stroke-linecap="round"/>
<path d="M267.055 109.246C271.769 116.515 271.948 128.681 273.193 136.831C276.73 159.984 277.764 183.402 279.176 206.757C280.605 230.399 284.007 256.603 280.816 280.194" stroke="#FFE3C7" stroke-width="8" stroke-linecap="round"/>
<path d="M23.658 135.042C64.5006 132.468 105 128.786 145.621 123.704C207.221 115.998 269.295 112.093 331.233 108.19" stroke="#FFE3C7" stroke-width="8" stroke-linecap="round"/>
<path d="M6.1877 166.024C98.3869 160.214 190.484 149.928 282.699 144.117" stroke="#FFE3C7" stroke-width="8" stroke-linecap="round"/>
<path d="M18.7616 199.595C76.4641 195.959 133.93 189.349 191.693 185.709C233.554 183.071 275.415 180.433 317.275 177.795C331.924 176.872 346.393 176.175 360.751 173.562" stroke="#FFE3C7" stroke-width="8" stroke-linecap="round"/>
<path d="M47.7986 233.622C77.8919 231.726 107.985 229.829 138.079 227.933C210.578 223.364 282.228 221.227 354.823 221.745" stroke="#FFE3C7" stroke-width="8" stroke-linecap="round"/>
<path d="M50.3952 37.7386C56.5813 37.3488 63.0515 37.6025 68.8204 35.0835C75.618 32.1153 74.3957 39.26 74.7367 44.671C75.088 50.245 77.2304 56.8293 70.3983 58.8057C63.155 60.9011 62.4878 59.5025 58.7736 52.1511" stroke="#FFE3C7" stroke-width="8" stroke-linecap="round"/>
<path d="M84.4346 32.6056C84.7953 38.3296 83.3054 49.093 86.5385 54.1367C89.9372 59.4388 93.3156 57.5569 95.4301 51.6673C96.7987 47.8553 98.389 43.614 98.3175 39.533C98.3098 39.0927 97.6699 32.5801 98.8265 34.4378C103.769 42.3764 104.853 53.5918 107.238 62.5435" stroke="#FFE3C7" stroke-width="8" stroke-linecap="round"/>
<path d="M112.99 35.2883C115.979 36.1991 118.705 58.6995 119.237 63.2815C119.8 68.1385 136.522 64.6712 140.071 61.9686" stroke="#FFE3C7" stroke-width="8" stroke-linecap="round"/>
<path d="M168.977 22.796C168.617 30.321 163.309 40.5466 160.918 47.7065C158.296 55.5603 155.799 64.1601 152.632 71.6354" stroke="#FFE3C7" stroke-width="8" stroke-linecap="round"/>
<path d="M180.25 59.4367C180.162 51.9106 181.806 45.0325 184.037 37.8664C184.151 37.5001 188.222 26.1625 188.284 26.2275C191.185 29.2946 191.225 41.09 192.045 45.081C193.067 50.0569 194.193 55.0179 195.225 59.987" stroke="#FFE3C7" stroke-width="8" stroke-linecap="round"/>
<path d="M170.477 46.6061C177.388 45.6395 184.299 44.706 191.217 43.805" stroke="#FFE3C7" stroke-width="8" stroke-linecap="round"/>
<path d="M203.767 29.5679C204.218 36.7332 205.248 45.3732 206.781 52.3696C208.331 59.4504 216.008 54.7822 217.776 50.3487C219.854 45.1374 217.425 28.7669 220.128 33.6829C223.831 40.4153 223.503 51.9983 225.082 59.5995" stroke="#FFE3C7" stroke-width="8" stroke-linecap="round"/>
<path d="M250.274 32.6133C249.993 28.1544 248.883 24.0081 243.113 25.6773C236.948 27.4608 238.808 44.7765 240.831 48.7298C243.996 54.9132 249.151 52.3358 250.808 46.358C252.01 42.0184 250.969 46.5172 251.657 49.2926C252.61 53.1404 253.837 56.9442 255.032 60.7003" stroke="#FFE3C7" stroke-width="8" stroke-linecap="round"/>
<path d="M244.884 41.9171C250.943 41.5353 256.742 39.6758 262.648 39.3036" stroke="#FFE3C7" stroke-width="8" stroke-linecap="round"/>
<defs>
<linearGradient id="paint0_linear_428_2170" x1="23.6084" y1="26.9853" x2="306.61" y2="226.679" gradientUnits="userSpaceOnUse">
<stop stop-color="#FF7D43"/>
<stop offset="1" stop-color="#FD4B33"/>
</linearGradient>
</defs>
</svg>
