<?xml version="1.0" encoding="UTF-8" standalone="no"?>
<!-- Created with Inkscape (http://www.inkscape.org/) -->

<svg
   width="900"
   height="1200"
   viewBox="0 0 238.12499 317.5"
   version="1.1"
   id="svg1"
   inkscape:version="1.3.2 (091e20e, 2023-11-25, custom)"
   sodipodi:docname="curly-bracket.svg"
   xmlns:inkscape="http://www.inkscape.org/namespaces/inkscape"
   xmlns:sodipodi="http://sodipodi.sourceforge.net/DTD/sodipodi-0.dtd"
   xmlns="http://www.w3.org/2000/svg"
   xmlns:svg="http://www.w3.org/2000/svg">
  <sodipodi:namedview
     id="namedview1"
     pagecolor="#505050"
     bordercolor="#eeeeee"
     borderopacity="1"
     inkscape:showpageshadow="0"
     inkscape:pageopacity="0"
     inkscape:pagecheckerboard="true"
     inkscape:deskcolor="#505050"
     inkscape:document-units="px"
     inkscape:zoom="0.4359103"
     inkscape:cx="127.31977"
     inkscape:cy="559.74819"
     inkscape:window-width="1500"
     inkscape:window-height="930"
     inkscape:window-x="-6"
     inkscape:window-y="-6"
     inkscape:window-maximized="1"
     inkscape:current-layer="layer1" />
  <defs
     id="defs1" />
  <g
     inkscape:label="Layer 1"
     inkscape:groupmode="layer"
     id="layer1">
    <g
       id="g12"
       inkscape:label="S3_CalligraphyTool"
       transform="matrix(2.2921127,0,0,2.2921127,-103.08691,-253.2962)">
      <path
         style="fill:none;stroke:#ff7d43;stroke-width:1.54505;stroke-dasharray:none;stroke-opacity:1"
         id="path7"
         d="m 47.74039,122.58289 c 0.206083,-2.07917 0.766274,-3.92462 1.560127,-5.69024 0.773859,-1.68355 1.8553,-2.79183 3.183344,-3.48246 0.725498,-0.29378 1.482429,-0.47923 2.219725,-0.14044 0.194312,0.0892 0.735988,0.49357 0.562139,0.34335 -0.439221,-0.37953 -0.907624,-0.68933 -1.361437,-1.03401 1.411741,1.38326 2.05778,3.26319 2.643064,5.43855 0.474754,1.99627 0.652154,4.07025 0.804229,6.14999 0.0394,0.2927 0.09267,0.58244 0.118211,0.87812 0.0421,0.48729 0.03215,0.98088 0.06346,1.46975 0.04771,0.74514 0.159854,1.42927 0.150833,2.1792 0.04136,1.10019 0.0673,2.20283 0.074,3.3046 -0.0011,0.7903 -0.0078,1.58029 -0.06012,2.36747 -0.06447,0.78841 -0.118198,1.57877 -0.162704,2.36985 -0.105053,1.60648 -0.117748,3.22298 -0.112242,4.83514 0.04404,2.03409 -0.01378,4.05302 -0.0568,6.08584 -0.01349,2.46416 -0.118155,4.92603 -0.118061,7.38932 -0.299533,3.01504 -0.474751,6.10261 -0.638498,9.14273 -0.02119,1.99994 -0.249244,3.99453 -0.20749,5.99741 0.02211,1.05985 0.111862,2.11484 0.167056,3.17234 0.388684,2.5473 0.796862,5.20393 1.949782,7.33116 0.204646,0.37759 0.451365,0.7072 0.677046,1.0608 1.950312,2.29655 4.283841,3.92562 6.60204,5.39503 0.582119,0.45209 1.232822,0.67556 1.830288,1.074 1.031538,-1.96101 -2.327903,-2.31514 -3.369744,-2.16342 -1.042441,0.24189 -2.024579,0.76059 -2.90048,1.5789 -0.938175,0.89748 -1.525417,2.20962 -2.007042,3.6113 -0.427809,1.42591 -0.670092,2.938 -0.881569,4.44926 -0.163223,1.23591 -0.184184,2.4935 -0.199714,3.74608 -0.03678,2.22089 -0.06283,4.44206 -0.0962,6.66308 2.7e-5,2.34541 -7.85e-4,4.69053 -0.01865,7.0358 -0.01302,2.23746 0.01734,4.47472 0.0391,6.71188 0.0223,1.78934 -0.0016,3.57873 0.02224,5.36797 0.04494,2.20417 -0.0011,4.40609 -0.118237,6.60417 -0.199379,3.07023 -0.629198,6.09843 -1.207477,9.07082 -0.349181,1.86224 -0.992421,3.44564 -2.107223,4.58835 -1.165937,0.92931 -2.469757,0.38625 -3.685582,-0.0511 -0.620937,-0.30045 -0.859533,-0.38381 -1.44656,-0.79454 -0.229279,-0.16044 -0.89882,-0.68962 -0.670458,-0.52667 2.776482,1.9811 1.713436,1.4163 0.699048,-0.0585 -0.558709,-0.95535 -1.022942,-2.05999 -1.246343,-3.26051 -0.08346,-0.34477 -0.02431,-0.17493 -0.186762,-0.5031 0,0 -2.380218,-1.58739 -2.380218,-1.58739 v 0 c -0.08421,0.21796 -0.06327,0.0904 -0.01922,0.39173 0.319032,1.2324 0.652343,2.45521 1.276759,3.46883 1.60911,2.52135 3.868968,4.13421 6.146528,5.18221 1.312916,0.43955 2.684659,0.94137 3.904751,-0.15935 1.177133,-1.29369 1.70523,-2.89525 2.081357,-4.9033 0.556969,-2.99798 1.024792,-6.03032 1.248767,-9.11571 0.141463,-2.20075 0.189452,-4.4066 0.160604,-6.61632 -0.02158,-1.79264 0.01629,-3.58553 -0.03642,-5.37757 -0.03196,-2.23475 -0.05263,-4.47002 -0.04703,-6.7052 0.02304,-2.3464 0.01026,-4.69277 0.0081,-7.03935 0.0351,-2.21185 0.07397,-4.42342 0.132452,-6.63424 0.03524,-1.22862 0.06217,-2.46164 0.201427,-3.67813 0.184781,-1.48761 0.400964,-2.97801 0.822098,-4.37681 0.466058,-1.32838 1.035602,-2.58598 1.927689,-3.43931 0.838049,-0.76955 1.763679,-1.29242 2.762188,-1.49699 0.347095,-0.0691 0.396938,-0.10203 0.730144,-0.0889 0.09385,0.005 0.358374,0.10676 0.280646,0.0335 -2.837518,-2.67595 -2.31309,-0.6022 -1.813132,-2.09599 0.0067,-0.0199 -0.02849,-0.0183 -0.04273,-0.0275 -0.535776,-0.0447 -1.055765,-0.64134 -1.572646,-0.84869 -0.798657,-0.53377 -0.55325,-0.36443 -1.388928,-0.94634 -0.256855,-0.17886 -0.992904,-0.79041 -0.769847,-0.53859 0.32691,0.36906 0.705692,0.64605 1.086406,0.89596 0.594098,0.39 -2.312031,-1.83916 -1.607913,-1.5856 -0.230661,-0.33747 -0.482224,-0.64946 -0.69198,-1.0124 -1.167878,-2.02069 -1.714899,-4.69577 -2.011666,-7.20122 -0.05174,-0.5497 -0.129941,-1.09583 -0.1552,-1.64913 -0.112417,-2.46223 0.136669,-4.96083 0.258431,-7.4103 0.09428,-1.62168 0.136926,-3.24725 0.266431,-4.86459 0.07454,-0.93094 0.201301,-1.93975 0.225909,-2.87955 0.01328,-0.50734 -0.0096,-1.01528 -0.01443,-1.52292 0.193047,-2.41853 0.228734,-4.85447 0.275922,-7.28634 0.03317,-2.03633 0.02023,-4.06234 0.05501,-6.09807 -0.0021,-1.59668 0.0061,-3.19784 0.12959,-4.78696 0.05998,-0.78501 0.131862,-1.56799 0.182107,-2.35452 0.05644,-0.80019 0.06706,-1.60067 0.06324,-2.40483 -0.0076,-1.11525 -0.04787,-2.23059 -0.09026,-3.34412 -0.09281,-0.7405 -0.06235,-1.43418 -0.127813,-2.17658 -0.04626,-0.52476 -0.152693,-1.03706 -0.197621,-1.56203 -0.02296,-0.26823 -0.01771,-0.53968 -0.02656,-0.80954 -0.161508,-2.10258 -0.393304,-4.20394 -0.80677,-6.24143 -0.555552,-2.17138 -1.3471,-4.2188 -2.664436,-5.68045 -2.120417,-1.72526 -3.097874,-3.17809 -5.408442,-2.06784 -1.356373,0.74674 -2.453773,1.93655 -3.239999,3.67218 -0.803886,1.79325 -1.421755,3.70206 -1.569791,5.83291 z"
         inkscape:label="}" />
      <g
         id="g13"
         inkscape:label="Eq"
         transform="translate(0,3.4629628)">
        <path
           style="fill:none;stroke:#ff7d43;stroke-width:1.32292;stroke-dasharray:none;stroke-opacity:1"
           id="path8"
           d="m 79.841094,181.94588 c 1.20377,0.12188 2.40234,0.0456 3.597744,-0.11313 1.42059,-0.23762 2.794076,-0.67239 4.190867,-1.0128 0.860274,-0.0458 1.716548,-0.25554 2.576746,-0.29202 0.50506,-0.0214 1.010975,0.0152 1.516485,0.0131 0.646139,-0.18238 1.296403,-0.11904 1.954514,-0.22838 0.16622,-0.0276 0.414028,0.066 0.499235,-0.0794 0.08443,-0.14404 -0.118941,-0.31202 -0.178409,-0.46802 0,0 -0.683871,-0.47847 -0.683871,-0.47847 v 0 c -0.317381,-0.10954 -0.621347,-0.27112 -0.95214,-0.32861 -0.163216,-0.0284 -0.326406,0.0578 -0.490855,0.0778 -0.668541,0.0813 -1.296043,0.26972 -1.977057,0.18765 -0.446315,0.0358 -0.890688,0.0998 -1.338074,0.11774 -0.888969,0.0357 -1.774029,-0.0152 -2.630647,0.29548 -1.426643,0.27711 -2.805303,0.75727 -4.247533,0.95043 -1.16414,0.14278 -2.343867,0.21521 -3.5149,0.11907 z"
           inkscape:label="Eq_Up" />
        <path
           style="fill:none;stroke:#ff7d43;stroke-width:1.32292;stroke-dasharray:none;stroke-opacity:1"
           id="path9"
           d="m 81.085411,188.93656 c 1.425371,0.0708 2.844004,0.0821 4.270804,0.0423 1.713693,-0.13808 3.429574,-0.2349 5.145283,-0.33911 1.170062,-0.0557 2.332998,-0.17084 3.489317,-0.35599 0.681646,-0.12833 1.35587,-0.29048 2.028343,-0.45941 0.340331,-0.0839 0.68135,-0.16548 1.020885,-0.25249 0.147637,-0.13491 0.05586,-0.026 -0.29209,-0.31194 0,0 -1.131393,-0.77608 -1.131393,-0.77608 v 0 c -0.454615,-0.26418 -0.262382,-0.24806 -0.522811,-0.24817 -0.327057,0.0953 -0.653037,0.19405 -0.984882,0.27219 -0.664057,0.17107 -1.329905,0.3405 -2.007558,0.44933 -1.137441,0.1898 -2.283555,0.29776 -3.434482,0.36804 -1.712955,0.12306 -3.425777,0.24901 -5.14082,0.33624 -1.407221,0.0867 -2.817093,0.0416 -4.224581,-0.0281 z"
           inkscape:label="Eq_Down" />
      </g>
      <path
         style="display:inline;fill:none;stroke:#ff7d43;stroke-width:1.37431;stroke-dasharray:none;stroke-opacity:1"
         id="path10"
         d="m 126.07429,170.15939 c 0.42331,-1.58558 0.37932,-2.76917 -0.37244,-4.26687 -0.73036,-1.33853 -1.88284,-2.40736 -3.22479,-3.30362 -2.50159,-1.51991 -4.16269,-2.07942 -6.99314,-2.35837 -1.17438,0.11762 -2.38775,-0.0127 -3.55866,0.13049 -0.76353,0.0934 -0.97153,0.22392 -1.68288,0.49255 -2.14986,0.83048 -3.74586,2.39094 -5.10633,4.00378 -0.73575,1.00267 -1.45668,2.08022 -1.80942,3.24014 -0.0969,0.31871 -0.24837,1.4481 -0.29632,1.7785 -0.0422,1.11902 -0.11737,2.25564 0.1734,3.35603 0.13794,0.52205 0.3306,1.03219 0.48958,1.54975 0.51996,1.49744 1.52567,2.76335 2.72111,3.91428 2.01471,1.7426 4.70154,2.83013 7.15195,4.0211 0.33987,0.15289 0.67906,0.30692 1.01962,0.45866 0.89715,0.39975 1.23217,0.53533 2.13604,0.95709 0.37597,0.17544 1.47961,0.73781 1.1212,0.53687 -0.39767,-0.22297 -0.77754,-0.69658 -1.23932,-0.60308 -0.43544,0.0882 0.75261,0.41695 1.12893,0.62543 2.80489,1.47264 5.03025,3.32994 7.10086,5.50429 2.06147,2.22925 3.45652,4.7724 4.41122,7.4838 0.5226,1.96228 0.81031,4.01885 0.20894,5.99743 -0.10739,0.35345 -0.27048,0.69252 -0.40573,1.03877 -1.25299,2.52141 -3.7756,4.07005 -6.48855,5.3225 -2.9741,1.12367 -5.72909,0.7685 -8.71478,-0.0661 0.95174,0.54859 -3.15193,-1.31034 -2.37082,-0.97065 0.62372,0.27127 1.17688,0.71151 1.86193,0.82947 0.39375,0.0678 -0.63066,-0.43018 -0.92277,-0.66776 -0.6432,-0.52311 -0.80126,-0.75578 -1.31407,-1.34791 -0.74622,-0.72651 -1.05866,-1.67565 -1.67076,-2.46792 0,0 -2.72058,-1.08706 -2.72058,-1.08706 v 0 c 0.0206,0.88792 0.94563,1.65082 1.3478,2.42656 0.6297,0.69698 1.32283,1.59453 2.18795,2.09406 1.96572,1.13504 3.90956,2.19137 6.12517,2.87461 3.06477,0.7787 5.85785,1.08131 8.86011,-0.11049 0.45972,-0.20794 0.93776,-0.38822 1.37918,-0.62381 2.19593,-1.17204 4.03106,-2.9205 5.12276,-4.93144 0.13734,-0.35931 0.30475,-0.71109 0.412,-1.07793 0.58764,-2.01017 0.26809,-4.14702 -0.22713,-6.13968 -0.88691,-2.75678 -2.32269,-5.3107 -4.36791,-7.5782 -0.90768,-0.97953 -1.24492,-1.4066 -2.28256,-2.27944 -1.48733,-1.25114 -3.17776,-2.32916 -4.88948,-3.33641 -2.90992,-1.59608 -5.93005,-3.03189 -9.00071,-4.3833 0.51085,0.26059 1.02546,0.51579 1.53257,0.78176 0.27776,0.14568 -0.56579,-0.27637 -0.84441,-0.42083 -1.05385,-0.5464 -2.06648,-1.14365 -2.95242,-1.8844 -1.19675,-1.11604 -2.22355,-2.34002 -2.76163,-3.80781 -0.61714,-1.53318 -0.78388,-3.19326 -0.71528,-4.81027 0.23398,-1.75737 0.85292,-3.44074 2.03492,-4.90525 1.32962,-1.58696 2.8975,-3.09867 5.04192,-3.86012 1.70247,-0.44126 3.44534,-0.62481 5.22552,-0.49201 1.0227,0.0577 1.99886,0.18297 2.95361,0.51854 0.22982,0.0808 0.88487,0.38262 0.67928,0.26276 -0.57755,-0.33673 -1.20071,-0.6112 -1.80107,-0.9168 1.46085,0.89752 2.72138,1.97847 3.6384,3.3218 0.67778,1.37597 0.94968,2.63866 0.39854,4.0992 z"
         inkscape:label="S" />
      <path
         style="fill:none;stroke:#ff7d43;stroke-width:1.32292;stroke-dasharray:none;stroke-opacity:1"
         id="path11"
         d="m 135.93051,153.37101 c 1.74579,-0.25045 3.49978,-0.43495 5.24508,-0.68883 1.12104,-0.0924 2.24729,-0.50088 3.37999,-0.39407 -0.68223,-0.35996 -1.34299,-0.76394 -2.04669,-1.07988 -0.0529,-0.0238 0.0367,0.1154 0.0249,0.17217 -0.0308,0.14781 -0.0902,0.28877 -0.14988,0.42746 -0.30556,0.70986 -0.72808,1.36364 -1.12972,2.02073 -1.02643,1.5391 -2.11904,3.03102 -3.14529,4.57073 -0.72084,1.08428 -1.42935,2.17774 -2.11296,3.28598 -0.76198,1.23172 -0.49926,0.93883 2.03097,1.82308 0.11543,0.0403 0.18831,-0.15604 0.28393,-0.23226 0.12797,-0.102 0.25787,-0.20158 0.3868,-0.30238 0.9449,-0.78822 2.0099,-1.16526 3.21894,-1.2847 0.24883,0.016 0.49959,0.0132 0.74648,0.0481 0.6236,0.088 1.11228,0.2372 1.68169,0.52004 0.28189,0.14003 1.11885,0.54367 0.80936,0.48639 -1.12831,-0.20884 -1.96517,-1.29191 -0.57682,0.18165 1.23466,1.58829 1.59624,2.87641 1.16231,4.83325 -0.7147,1.54664 -1.84668,2.6505 -3.27168,3.53666 -1.02231,0.62467 -2.13576,0.99648 -3.3271,1.07373 -0.60762,0.0967 -1.1773,-0.15833 -1.7631,-0.21675 -0.16226,-0.0363 -0.32204,-0.0858 -0.48669,-0.1075 -0.061,-0.0383 -0.12955,-0.0711 -0.18819,-0.0873 -0.0677,-0.0319 -0.0964,-0.0434 -0.12588,-0.0534 -0.0206,-0.007 -0.0365,-0.0313 -0.0501,-0.0487 4.43806,2.5203 2.68543,1.865 2.01242,0.95671 -0.1095,-0.14505 -0.19992,-0.3029 -0.2999,-0.45424 -0.0666,-0.12686 -0.1334,-0.16718 -0.25684,-0.24983 0,0 -2.56297,-1.10581 -2.56297,-1.10581 v 0 c -0.16068,5.3e-4 -0.0179,0.0495 0.018,0.12963 0.10308,0.15343 0.20357,0.30824 0.30196,0.46493 0.77678,1.14221 1.45683,1.33854 3.12709,2.13065 0.016,-0.002 0.0358,-0.005 0.0413,-0.005 0.0236,0.009 0.0487,0.014 0.0735,0.0191 0.0756,0.0435 0.10393,0.0438 0.18812,0.0516 0.16539,0.0431 0.32969,0.0591 0.49624,0.0987 0.56155,0.16737 1.17392,0.10085 1.75215,0.1015 1.21174,-0.13506 2.34502,-0.55322 3.37652,-1.20958 1.02267,-0.74438 2.35096,-1.82565 2.89997,-2.98782 0.12566,-0.266 0.16866,-0.5637 0.25299,-0.84554 0.56256,-2.17755 0.19816,-3.23407 -1.09103,-5.06895 -1.42923,-1.60189 -0.55624,-0.7633 -3.60157,-2.67508 -1.02009,-0.64038 -2.13768,-0.98062 -3.34709,-0.94157 -1.24141,0.16107 -2.33449,0.57864 -3.31303,1.37958 -0.13422,0.0968 -0.26692,0.19574 -0.40266,0.2904 -0.0939,0.0655 -0.37263,0.11512 -0.28599,0.18986 2.36902,2.04373 1.63303,1.86169 2.28818,0.84064 0.6948,-1.09811 1.35603,-2.21744 2.07377,-3.30099 1.02008,-1.54741 2.11204,-3.04258 3.15356,-4.57508 0.15706,-0.25124 1.71281,-2.72218 1.47033,-2.90631 -0.71297,-0.54139 -1.55275,-0.89145 -2.32913,-1.33718 -1.07861,0.16069 -2.149,0.36915 -3.22567,0.54189 -1.75557,0.26137 -3.51932,0.47678 -5.28661,0.63967 z"
         inkscape:label="3" />
    </g>
  </g>
</svg>
